1.9Hzhigh3min_grf.mot
version=1
nRows=12
nColumns 19
inDegrees=yes
endheader
time	1_ground_force_vx	1_ground_force_vy	1_ground_force_vz	1_ground_force_px	1_ground_force_py	1_ground_force_pz	1_ground_torque_x	1_ground_torque_y	1_ground_torque_z	2_ground_force_vx	2_ground_force_vy	2_ground_force_vz	2_ground_force_px	2_ground_force_py	2_ground_force_pz	2_ground_torque_x	2_ground_torque_y	2_ground_torque_z
            1.253500	           -0.273348	           -1.264469	            0.591399	           -0.233013	            0.005581	           -0.255695	           -0.569898	           -0.081875	           -0.367784	            0.473069	           -1.286677	           -0.192511	           -0.232311	            0.006130	           -0.833667	           -0.356991	            0.026800	            0.075654
            1.254000	           -0.227831	           -0.723270	            0.501892	           -0.233013	            0.005581	           -0.255695	           -0.510116	           -0.035467	           -0.403394	            0.236120	           -0.550595	           -0.283639	           -0.232311	            0.006130	           -0.833667	           -0.413791	            0.149482	            0.076116
            1.254500	           -0.319191	           -1.264478	            0.591513	           -0.233013	            0.005581	           -0.255695	           -0.626203	            0.084394	           -0.350088	            0.331108	           -0.918219	           -0.378850	           -0.232311	            0.006130	           -0.833667	           -0.319743	            0.102961	           -0.037194
            1.255000	           -0.090009	           -1.084168	            0.591717	           -0.233013	            0.005581	           -0.255695	           -0.495009	            0.223337	           -0.377647	            0.422875	           -0.365937	           -0.236134	           -0.232311	            0.006130	           -0.833667	           -0.263244	            0.083654	            0.132367
            1.255500	           -0.228188	           -1.263280	            0.316150	           -0.233013	            0.005581	           -0.255695	           -0.539537	            0.214093	           -0.402232	            0.518590	           -0.918211	           -0.191217	           -0.232311	            0.006130	           -0.833667	           -0.356981	            0.008366	           -0.056365
            1.256000	            0.092159	           -0.721635	            0.134248	           -0.233013	            0.005581	           -0.255695	           -0.475690	            0.084838	           -0.389280	            0.423540	           -0.550086	           -0.236791	           -0.232311	            0.006130	           -0.833667	           -0.338155	            0.017281	            0.113312
            1.256500	           -0.136244	           -0.182455	            0.503983	           -0.233013	            0.005581	           -0.255695	           -0.529461	           -0.025782	           -0.493405	            0.378122	           -0.919388	           -0.003445	           -0.232311	            0.006130	           -0.833667	           -0.338205	            0.017684	            0.000211
            1.257000	           -0.182069	           -0.903330	            0.455149	           -0.233013	            0.005581	           -0.255695	           -0.545579	           -0.063185	           -0.401463	            0.333787	           -1.654979	           -0.334550	           -0.232311	            0.006130	           -0.833667	           -0.357084	            0.045908	            0.019171
            1.257500	           -0.227262	           -0.724253	            0.731172	           -0.233013	            0.005581	           -0.255695	           -0.444999	            0.011093	           -0.478548	            0.426137	           -1.286177	           -0.380204	           -0.232311	            0.006130	           -0.833667	           -0.263261	            0.083789	            0.094666
            1.258000	           -0.181452	           -0.543978	            0.731831	           -0.233013	            0.005581	           -0.255695	           -0.501355	            0.131106	           -0.438349	            0.191428	           -1.104548	            0.089834	           -0.232311	            0.006130	           -0.833667	           -0.282181	            0.112348	            0.019375
            1.258500	           -0.273626	           -0.362944	            0.549408	           -0.233013	            0.005581	           -0.255695	           -0.624942	            0.232469	           -0.385129	            0.566104	           -1.102191	           -0.191894	           -0.232311	            0.006130	           -0.833667	           -0.394885	            0.111874	            0.038273
            1.259000	            0.139012	           -1.263996	            0.498663	           -0.233013	            0.005581	           -0.255695	           -0.528405	            0.204785	           -0.330267	            0.327161	            0.186337	           -0.281051	           -0.232311	            0.006130	           -0.833667	           -0.375622	           -0.020396	            0.037793
